<svg width="280" height="134" viewBox="0 0 280 134" fill="none" xmlns="http://www.w3.org/2000/svg">
<path d="M22.6013 0H121.978L122.295 0.022767L122.547 0.045534C127.531 0.523641 132.339 2.43282 136.196 5.66573C140.877 9.53612 143.985 15.3189 144.166 21.4595C144.166 51.8209 144.166 82.1791 144.166 112.54C144.066 116.066 142.961 119.579 141.142 122.584C137.075 129.352 129.686 133.476 121.913 134H22.8307C11.2748 133.093 1.00795 123.28 0 111.571V106.494C1.88991 110.566 4.50993 114.638 8.04098 117.458C12.6543 121.267 18.9766 122.981 24.8757 122.779C50.1843 122.776 75.4896 122.779 100.798 122.779C107.482 122.662 114.044 119.793 118.544 114.794C121.888 111.119 124.046 106.162 124.136 101.154C124.13 76.432 124.139 51.7071 124.133 26.9821C123.92 20.6724 120.544 14.8766 115.549 11.1558C111.21 7.89364 105.87 6.22189 100.469 6.17636C74.304 6.18286 48.1296 6.17636 21.9649 6.18286C17.119 6.27393 12.2602 7.46107 8.20251 10.2061C5.30466 12.1283 3.10138 14.7823 1.43439 17.8233C2.35834 12.9902 4.92345 8.62218 8.68064 5.47709C12.6091 2.13359 17.5099 0.400049 22.6013 0Z" fill="white"/>
<path d="M57.1816 54.0684C60.7644 54.0716 64.3439 54.0684 67.9234 54.0716C67.9234 75.1864 67.9234 96.2979 67.9234 117.413C64.3439 117.413 60.7612 117.413 57.1816 117.413C57.1816 96.2979 57.1816 75.1831 57.1816 54.0684Z" fill="white"/>
<path d="M81.0883 53.9089C84.6678 53.9089 88.2505 53.9089 91.8301 53.9089C91.8301 59.5747 91.8301 65.2371 91.8301 70.9029C94.5761 70.9029 97.3221 70.9029 100.071 70.9029C100.068 74.2626 100.068 77.6256 100.071 80.9854C97.3221 80.9854 94.5761 80.9854 91.8301 80.9854C91.8301 93.1267 91.8301 105.271 91.8301 117.413C88.2505 117.413 84.6678 117.413 81.0883 117.413C81.0883 105.271 81.0883 93.1267 81.0883 80.9854C79.5796 80.9854 78.0741 80.9854 76.5654 80.9854C76.5654 77.6256 76.5654 74.2626 76.5654 70.9029C78.0741 70.9029 79.5796 70.9029 81.0883 70.9029C81.0883 65.2371 81.0883 59.5747 81.0883 53.9089Z" fill="white"/>
<path fill-rule="evenodd" clip-rule="evenodd" d="M37.8788 76.2109C35.0553 73.1764 31.2302 71.3713 27.1338 70.9354C22.5302 70.4346 17.5583 70.698 13.4425 73.0528C9.78545 75.1473 6.84883 78.6144 4.88785 82.3254C2.28398 87.3537 1.98999 92.8275 2.51335 98.3794C2.98179 102.972 4.41295 107.398 7.32696 111.022C10.1537 114.599 14.2469 116.957 18.7116 117.735C22.6885 118.411 27.1144 118.395 30.9362 116.964C33.553 116.024 35.8468 114.495 37.8853 112.612C37.8756 113.812 37.8768 115.012 37.878 116.212C37.8784 116.613 37.8788 117.013 37.8788 117.413H48.7046C48.7014 101.908 48.7014 86.4072 48.7046 70.9029H37.8756C37.8772 71.7876 37.8772 72.6722 37.8772 73.5569C37.8772 74.4416 37.8772 75.3262 37.8788 76.2109ZM29.4729 80.3252C27.289 79.8666 24.9533 79.7495 22.7629 80.2179C17.3291 81.3725 13.1486 86.8983 12.7836 92.3657C12.5284 95.449 12.9257 98.6884 14.1824 101.531C15.6653 104.774 18.2821 107.444 21.7194 108.511C25.8611 109.756 30.8685 108.895 34.0636 105.84C37.123 102.939 38.5154 98.8185 38.5348 94.6456C38.6284 90.9281 37.7723 87.2431 35.5077 84.2541C34.0378 82.2214 31.9088 80.8586 29.4729 80.3252Z" fill="white"/>
<path d="M177.509 46.6832C178.343 46.6832 179.179 46.6832 180.013 46.6832C180.013 47.685 180.016 48.6867 180.013 49.6917C180.714 49.6917 181.412 49.6917 182.113 49.6917C182.113 50.3975 182.113 51.1 182.113 51.8058C181.412 51.8058 180.714 51.8058 180.013 51.8058C180.019 53.5426 180.009 55.2761 180.006 57.0129C180.029 57.709 180.013 58.5091 180.287 59.1595C180.714 59.8783 181.337 59.5791 182.022 59.5824C182.038 60.2751 182.077 60.9679 182.116 61.6607C180.937 61.9274 179.745 62.2168 178.646 61.5078C177.641 60.7695 177.532 59.4685 177.506 58.3139C177.503 56.1478 177.512 53.9784 177.509 51.8091C177.024 51.8058 176.54 51.8058 176.052 51.8026C176.055 51.1 176.055 50.3942 176.055 49.6917C176.54 49.6917 177.024 49.6917 177.509 49.6885C177.506 48.6867 177.509 47.685 177.509 46.6832Z" fill="white"/>
<path d="M229.118 46.6832C229.951 46.6832 230.788 46.6832 231.622 46.6832C231.622 47.685 231.625 48.6867 231.622 49.6885C232.323 49.6917 233.02 49.6917 233.721 49.6917C233.721 50.3943 233.721 51.1 233.725 51.8026C233.024 51.8058 232.323 51.8058 231.622 51.8091C231.628 53.5459 231.618 55.2859 231.618 57.0227C231.634 57.7382 231.641 58.5481 231.912 59.2148C232.403 59.8458 232.946 59.5954 233.625 59.5921C233.647 60.2816 233.676 60.9679 233.721 61.6542C232.542 61.9241 231.389 62.2168 230.284 61.5241C229.35 60.8703 229.163 59.7125 229.124 58.6457C229.098 56.369 229.128 54.0858 229.118 51.8091C228.633 51.8091 228.149 51.8058 227.664 51.8026C227.664 51.1 227.664 50.3975 227.664 49.6917C228.149 49.6917 228.633 49.6917 229.118 49.6885C229.115 48.6867 229.118 47.685 229.118 46.6832Z" fill="white"/>
<path fill-rule="evenodd" clip-rule="evenodd" d="M155.502 45.0506C154.735 45.0414 153.967 45.0323 153.206 45.0928C152.368 48.2448 151.594 51.4269 150.82 54.6081C150.249 56.9582 149.677 59.3078 149.08 61.6444H149.082C150.037 61.6444 150.996 61.6444 151.952 61.6477C152.169 60.7605 152.381 59.8714 152.593 58.9818C152.658 58.7072 152.723 58.4325 152.789 58.1578C153.726 58.1491 154.663 58.1491 155.599 58.1491C156.068 58.1491 156.536 58.1491 157.005 58.1481C157.279 59.3124 157.551 60.4768 157.819 61.6444H160.81C159.467 56.116 158.128 50.5909 156.788 45.0658L156.785 45.0538C156.358 45.0608 155.93 45.0557 155.502 45.0506ZM156.643 55.8713C156.064 53.1686 155.492 50.4658 154.921 47.7598C154.339 50.4626 153.748 53.1621 153.157 55.8616C154.32 55.8713 155.483 55.8713 156.643 55.8713Z" fill="white"/>
<path d="M205.534 50.0137C205.916 50.404 206.148 50.9797 206.407 51.4546C206.865 50.7097 207.205 49.9975 208.038 49.6104C209.133 49.0933 210.745 49.1226 211.576 50.1146C212.425 51.087 212.545 52.5148 212.564 53.754C212.561 56.3852 212.561 59.0132 212.561 61.6444C211.673 61.6444 210.784 61.6444 209.896 61.6444C209.889 59.2311 209.902 56.8146 209.899 54.4013C209.863 53.663 209.863 52.6352 209.347 52.0563C208.771 51.4806 207.909 51.5879 207.386 52.1896C206.655 53.1263 206.613 54.2386 206.581 55.3802C206.581 57.4683 206.591 59.5564 206.584 61.6444C205.722 61.6444 204.862 61.6444 204 61.6444C203.929 58.8278 204.148 55.9592 203.877 53.1556C203.783 52.0823 202.96 51.3277 201.9 51.8448C200.924 52.5799 200.798 53.9166 200.769 55.0485C200.763 57.2471 200.776 59.4458 200.769 61.6444C199.881 61.6444 198.992 61.6444 198.104 61.6444C198.104 57.6602 198.104 53.676 198.104 49.6917C198.996 49.6917 199.887 49.6917 200.779 49.6917C200.772 50.2479 200.76 50.8008 200.74 51.3537C201.05 50.8464 201.357 50.2381 201.819 49.8576C202.885 49.0445 204.549 49.077 205.534 50.0137Z" fill="white"/>
<path d="M163.86 49.6918C164.774 49.6918 165.691 49.6918 166.606 49.6918C166.622 52.349 166.577 55.0095 166.619 57.6667C166.664 58.6912 167.003 59.6572 168.192 59.6409C169.332 59.423 169.814 58.0635 169.827 57.026C169.862 54.5802 169.82 52.1343 169.836 49.6918C170.751 49.6918 171.668 49.6918 172.582 49.6918C172.582 53.676 172.582 57.6602 172.582 61.6444C171.691 61.6444 170.796 61.6444 169.904 61.6444C169.917 61.0688 169.93 60.4898 169.953 59.9141C169.484 60.6687 169.019 61.4623 168.169 61.8331C167.048 62.2689 165.575 62.1193 164.803 61.1013C163.966 60.0768 163.95 58.4343 163.879 57.1691C163.831 54.6777 163.873 52.1831 163.86 49.6918Z" fill="white"/>
<path fill-rule="evenodd" clip-rule="evenodd" d="M245.287 56.356C245.274 54.5606 245.239 52.3555 244.166 50.8301C242.897 48.9762 240.054 48.7843 238.432 50.2642C236.913 51.5977 236.484 53.7703 236.464 55.7087C236.487 57.4878 236.787 59.5043 238.089 60.8215C239.575 62.4543 242.593 62.5096 244.047 60.8085C244.358 60.459 244.603 60.0312 244.842 59.6153C244.903 59.5087 244.964 59.4029 245.025 59.2994L245.025 59.299C244.369 58.9186 243.714 58.5382 243.061 58.1513C242.966 58.2727 242.873 58.4011 242.78 58.5299C242.309 59.184 241.831 59.8479 240.897 59.6604C239.449 59.1823 239.239 57.696 239.071 56.3722C240.266 56.3572 241.461 56.3584 242.656 56.3597C243.533 56.3606 244.41 56.3615 245.287 56.356ZM242.651 53.8564C242.546 53.1963 242.43 52.464 242.027 51.9879C241.588 51.448 240.78 51.2854 240.241 51.783C239.526 52.4034 239.356 53.167 239.165 54.0177C239.137 54.1437 239.109 54.2716 239.078 54.4012C240.299 54.411 241.523 54.4142 242.745 54.3947C242.71 54.2262 242.681 54.0442 242.651 53.8564Z" fill="white"/>
<path fill-rule="evenodd" clip-rule="evenodd" d="M192.722 50.8919C191.733 49.5584 189.982 48.999 188.39 49.4088C187.311 49.6722 186.406 50.404 185.863 51.37C185.023 52.8401 184.784 54.694 184.878 56.3625C185.004 58.0862 185.447 59.8816 186.784 61.0687C188.277 62.412 190.738 62.3892 192.189 60.9939C193.546 59.7287 193.959 57.8521 194.05 56.06C194.092 54.3134 193.788 52.3262 192.722 50.8919ZM190.467 52.1929C189.953 51.6139 189.356 51.4741 188.69 51.9099C187.85 52.5929 187.643 54.0077 187.601 55.029C187.563 56.3365 187.569 58.0375 188.393 59.1303C188.858 59.7092 189.675 59.8426 190.251 59.3547C191.136 58.6229 191.288 57.1105 191.33 56.0437C191.349 54.8176 191.291 53.1816 190.467 52.1929Z" fill="white"/>
<path fill-rule="evenodd" clip-rule="evenodd" d="M257.631 44H254.963C254.97 44.84 254.966 45.6805 254.961 46.5209C254.954 48.0461 254.947 49.5712 255.005 51.0935C254.958 51.0259 254.911 50.956 254.863 50.8849C254.55 50.4197 254.202 49.9041 253.726 49.6332C252.456 48.9404 250.789 49.308 249.901 50.4496C248.621 52.014 248.418 54.4533 248.515 56.395C248.631 57.9692 249.009 59.8816 250.13 61.0622C251.067 62.103 252.695 62.3795 253.9 61.6607C254.271 61.3789 254.554 60.9543 254.821 60.5525C254.884 60.4581 254.946 60.3649 255.008 60.2751C254.997 60.5082 254.986 60.7413 254.975 60.9748C254.965 61.1975 254.955 61.4206 254.943 61.6444H257.628C257.63 58.7044 257.63 55.7645 257.63 52.8241C257.63 49.8833 257.63 46.942 257.631 44ZM254.501 52.736C254.119 51.8839 253.212 51.305 252.346 51.9034C251.8 52.2742 251.551 53.0548 251.396 53.6662C251.076 55.1689 251.099 56.8113 251.574 58.2782C251.826 58.9872 252.349 59.732 253.192 59.6442C254.084 59.6117 254.527 58.675 254.753 57.9302C255.198 56.2617 255.186 54.3362 254.501 52.736Z" fill="white"/>
<path fill-rule="evenodd" clip-rule="evenodd" d="M224.346 53.4027C224.23 51.9554 223.897 50.5699 222.573 49.773C220.57 48.742 218.218 49.3957 216.741 51.0285C216.923 51.2702 217.106 51.512 217.289 51.754C217.542 52.0882 217.796 52.4229 218.047 52.7587C218.896 51.9879 219.649 51.3667 220.877 51.7245C221.765 52.0823 221.846 52.8489 221.93 53.6517C221.947 53.8122 221.964 53.9741 221.988 54.1345C221.941 54.1354 221.895 54.1363 221.848 54.1372C220.206 54.1677 218.642 54.1968 217.417 55.4745C216.393 56.5153 216.321 57.8553 216.473 59.2376C216.612 60.0832 217.042 60.9744 217.766 61.4655C218.699 62.0867 219.933 62.1192 220.928 61.6281C221.473 61.3216 221.743 60.8365 222.027 60.3254C222.084 60.2236 222.141 60.1208 222.201 60.0182C222.185 60.5613 222.172 61.1012 222.162 61.6444H224.434C224.42 60.6747 224.427 59.7026 224.434 58.7299C224.448 56.9523 224.461 55.1727 224.346 53.4027ZM222.022 56.5248C222.031 56.3833 222.039 56.2402 222.049 56.0958C221.895 56.1023 221.738 56.1039 221.578 56.1056C220.859 56.1133 220.107 56.1212 219.52 56.5739C218.725 57.1821 218.702 58.3237 219.042 59.1823C219.4 59.9531 220.508 60.1288 221.061 59.4783C221.896 58.6229 221.956 57.6196 222.022 56.5248Z" fill="white"/>
<path d="M150.695 69.4502C151.664 69.4502 152.633 69.4502 153.603 69.4502C153.603 74.0849 153.603 78.7196 153.603 83.3543C155.111 83.3543 156.62 83.3543 158.129 83.3543C158.129 84.2487 158.125 85.1431 158.125 86.0376C155.648 86.0376 153.173 86.0376 150.695 86.0376C150.695 80.5084 150.695 74.9793 150.695 69.4502Z" fill="white"/>
<path d="M219.374 71.1057C220.195 71.0407 221.025 71.0765 221.849 71.0732C221.846 72.0782 221.852 73.08 221.849 74.085C222.55 74.085 223.248 74.085 223.949 74.085C223.949 74.7907 223.949 75.4933 223.949 76.199C223.248 76.199 222.55 76.199 221.849 76.199C221.936 78.5408 221.658 80.9801 222.014 83.2893C222.25 84.213 223.135 84.0504 223.862 83.9463C223.871 84.6554 223.888 85.3611 223.917 86.0669C222.77 86.3011 221.668 86.5776 220.576 85.9661C219.633 85.3839 219.365 84.096 219.345 83.0617C219.332 80.7752 219.352 78.4888 219.345 76.2023C218.861 76.199 218.376 76.199 217.892 76.1958C217.892 75.4933 217.892 74.7907 217.892 74.085C218.376 74.085 218.861 74.085 219.345 74.0817C219.349 73.093 219.303 72.0945 219.374 71.1057Z" fill="white"/>
<path d="M204.391 73.6068C204.372 74.55 204.342 75.49 204.33 76.4332C203.748 76.5242 203.186 76.3681 202.759 76.8235C201.839 77.6333 201.642 78.9213 201.587 80.0889C201.551 82.0696 201.593 84.0536 201.577 86.0376C200.663 86.0376 199.745 86.0376 198.831 86.0376C198.831 82.0534 198.831 78.0691 198.831 74.0849C199.719 74.0849 200.611 74.0817 201.5 74.0849C201.5 74.7874 201.493 75.4932 201.47 76.1957C201.777 75.4607 202.01 74.6248 202.672 74.1239C203.121 73.7337 203.829 73.7206 204.391 73.6068Z" fill="white"/>
<path d="M245.484 73.6036C245.445 74.5468 245.403 75.49 245.361 76.4332C244.812 76.508 244.211 76.4169 243.788 76.83C242.9 77.6431 242.69 78.9473 242.683 80.0987C242.68 82.0762 242.693 84.0569 242.686 86.0376C241.772 86.0376 240.855 86.0376 239.94 86.0376C239.94 82.0534 239.94 78.0692 239.94 74.0849C240.832 74.0849 241.724 74.0849 242.619 74.0849C242.606 74.7257 242.593 75.3631 242.57 76.0039C242.874 75.3599 243.165 74.6021 243.72 74.137C244.176 73.7142 244.899 73.7142 245.484 73.6036Z" fill="white"/>
<path d="M247.264 74.0849C248.217 74.0849 249.167 74.0849 250.12 74.0849C250.831 77.0544 251.483 80.0401 252.188 83.0096C252.808 80.0336 253.431 77.0609 254.055 74.0849C254.979 74.0849 255.9 74.0817 256.824 74.0817C255.606 78.6806 254.413 83.286 253.199 87.885C252.83 89.1729 252.304 90.6268 251.028 91.261C249.9 91.8172 248.854 91.5863 247.662 91.4594C247.778 90.6528 247.862 89.8429 247.985 89.0396C248.679 89.0298 249.6 89.4039 250.017 88.6363C250.508 87.6866 250.882 86.4181 250.479 85.3774C249.484 81.9168 248.511 78.4594 247.526 74.9956C247.439 74.6931 247.351 74.3874 247.264 74.0849Z" fill="white"/>
<path fill-rule="evenodd" clip-rule="evenodd" d="M175.813 68.3932H173.144C173.146 71.335 173.146 74.276 173.146 77.2166C173.146 80.1572 173.146 83.0974 173.148 86.0376H175.829C175.813 85.566 175.79 85.0945 175.768 84.6229L175.768 84.6228C175.838 84.7272 175.908 84.8377 175.978 84.9502C176.23 85.3493 176.497 85.773 176.863 86.0343C178.077 86.7596 179.693 86.519 180.63 85.4522C181.886 84.0699 182.206 81.907 182.261 80.1084C182.251 78.3684 182.016 76.2315 180.865 74.8428C180.025 73.7694 178.481 73.3824 177.231 73.8995C176.623 74.1764 176.291 74.6625 175.937 75.1821C175.88 75.2667 175.821 75.3523 175.761 75.4379C175.83 73.9191 175.822 72.3974 175.814 70.8757C175.809 70.0481 175.805 69.2204 175.813 68.3932ZM179.008 77.0219C178.665 76.2706 177.783 75.7307 177.018 76.2413C176.226 76.7682 175.939 77.9813 175.822 78.8725C175.651 80.2808 175.722 81.9591 176.436 83.221C176.863 83.9333 177.625 84.2781 178.375 83.8227C179.169 83.195 179.408 82.0339 179.499 81.0777C179.596 79.7604 179.567 78.2415 179.008 77.0219Z" fill="white"/>
<path fill-rule="evenodd" clip-rule="evenodd" d="M193.429 75.2168C192.405 73.8768 190.648 73.3825 189.052 73.828C188.054 74.124 187.256 74.7387 186.71 75.6299C185.634 77.3764 185.55 79.4352 185.712 81.429C185.88 82.9511 186.451 84.5773 187.676 85.5596C189.217 86.841 191.662 86.7174 193.074 85.2929C194.231 84.135 194.702 82.3592 194.79 80.7622C194.883 78.8791 194.609 76.752 193.429 75.2168ZM191.446 76.8723C191.006 76.0852 190.128 75.7405 189.375 76.3584C188.745 76.9536 188.512 77.9879 188.396 78.8173C188.251 80.1475 188.296 81.6079 188.784 82.8666C189.045 83.4618 189.481 84.0342 190.192 84.0179C191.178 84.109 191.691 82.9414 191.882 82.1445C192.24 80.476 192.273 78.4107 191.446 76.8723Z" fill="white"/>
<path fill-rule="evenodd" clip-rule="evenodd" d="M234.326 75.0281C233.279 73.828 231.596 73.4019 230.081 73.8345C228.853 74.176 227.929 75.1355 227.419 76.2901C226.64 78.0334 226.537 80.1117 226.853 81.9753C227.115 83.4584 227.787 85.0098 229.111 85.8229C230.636 86.8149 232.83 86.6133 234.109 85.296C235.411 84.0504 235.799 82.1444 235.867 80.4077C235.912 78.5765 235.576 76.4429 234.326 75.0281ZM232.894 77.7472C232.61 76.7422 231.825 75.6266 230.646 76.1958C229.596 76.9276 229.46 78.6156 229.386 79.78C229.392 80.9931 229.47 82.6551 230.31 83.6114C231.053 84.3854 232.155 84.0179 232.594 83.1137C233.35 81.52 233.289 79.4352 232.894 77.7472Z" fill="white"/>
<path fill-rule="evenodd" clip-rule="evenodd" d="M214.58 78.1505C214.516 76.6479 214.234 75.0444 212.852 74.1956C210.839 73.1092 208.474 73.7792 206.959 75.3957C207.395 75.9844 207.831 76.5698 208.277 77.152C209.127 76.3422 209.941 75.7209 211.175 76.1568C211.988 76.4889 212.077 77.3008 212.161 78.0713C212.178 78.2288 212.196 78.3847 212.219 78.5343C212.118 78.5362 212.017 78.5378 211.917 78.5394C210.509 78.562 209.207 78.5829 208.016 79.497C206.494 80.6028 206.329 83.0226 207.001 84.6326C207.634 86.1254 209.318 86.6849 210.794 86.1645C211.529 85.9362 211.88 85.3568 212.246 84.7527C212.313 84.6424 212.381 84.5312 212.451 84.4212C212.425 84.9611 212.403 85.4977 212.38 86.0376H214.58C214.577 84.8113 214.579 83.5842 214.581 82.3571C214.583 80.9546 214.585 79.5521 214.58 78.1505ZM212.239 81.0437C212.252 80.8613 212.266 80.6763 212.283 80.489C212.1 80.4986 211.913 80.4997 211.725 80.5009C210.958 80.5056 210.173 80.5104 209.592 81.0874C208.914 81.7119 208.927 82.8372 209.292 83.6211C209.686 84.3854 210.771 84.4862 211.32 83.8357C212.097 83.0154 212.165 82.0708 212.239 81.0437Z" fill="white"/>
<path d="M182.032 94.4126C182.946 94.4126 183.863 94.4126 184.778 94.4126C184.765 96.8194 184.804 99.2262 184.755 101.633C185.33 100.856 185.77 100.104 186.765 99.8344C187.711 99.6165 188.958 99.701 189.643 100.482C190.535 101.451 190.667 102.892 190.68 104.154C190.67 106.788 190.677 109.423 190.674 112.057C189.785 112.057 188.897 112.057 188.008 112.057C188.005 109.644 188.005 107.23 188.015 104.814C187.989 103.994 188.015 103.028 187.404 102.397C186.984 102.131 186.516 102.062 186.038 102.209C185.136 102.765 184.797 103.786 184.781 104.804C184.762 107.221 184.787 109.64 184.778 112.057C183.863 112.057 182.946 112.057 182.032 112.057C182.032 106.177 182.032 100.293 182.032 94.4126Z" fill="white"/>
<path d="M221.203 94.4126C222.091 94.4126 222.98 94.4126 223.868 94.4126C223.868 100.293 223.868 106.177 223.868 112.057C222.98 112.057 222.091 112.057 221.203 112.057C221.203 106.177 221.203 100.293 221.203 94.4126Z" fill="white"/>
<path d="M254.879 95.1217C255.396 95.0143 256.035 94.985 256.478 95.3331C257.189 95.938 257.282 97.187 256.656 97.8895C256.077 98.631 254.859 98.5562 254.284 97.8505C253.616 96.956 253.88 95.6453 254.879 95.1217Z" fill="white"/>
<path d="M157.964 95.551C157.964 96.3641 157.964 97.1772 157.964 97.9903C156.943 97.987 155.919 97.9935 154.895 97.9903C154.895 102.68 154.895 107.367 154.895 112.057C153.951 112.057 153.011 112.057 152.068 112.057C152.068 107.367 152.068 102.68 152.068 97.9903C151.044 97.9903 150.023 97.9903 148.999 97.9903C148.999 97.1772 148.999 96.3641 148.999 95.551C151.987 95.551 154.975 95.551 157.964 95.551Z" fill="white"/>
<path d="M178.879 100.771C178.468 101.464 178.061 102.153 177.648 102.846C176.869 102.339 176.184 101.864 175.299 102.518C174.227 103.61 174.194 105.702 174.32 107.13C174.44 108.066 174.76 109.562 175.797 109.881C176.63 110.154 177.105 109.666 177.78 109.276C178.161 109.995 178.533 110.724 178.911 111.446C177.583 112.438 176.091 112.799 174.501 112.197C172.705 111.533 171.926 109.53 171.687 107.767C171.481 105.598 171.51 103.168 172.834 101.331C174.246 99.353 177.089 99.2392 178.879 100.771Z" fill="white"/>
<path d="M195.358 100.101C196.253 100.101 197.144 100.104 198.036 100.104C198.023 100.683 198.01 101.262 197.988 101.841C198.469 101.119 198.824 100.4 199.645 100.013C200.856 99.4799 202.436 99.636 203.244 100.794C203.951 101.783 204.013 103.301 204.068 104.479C204.103 107.006 204.071 109.533 204.081 112.057C203.166 112.057 202.249 112.057 201.335 112.057C201.328 109.533 201.338 107.009 201.338 104.489C201.367 103.676 201.125 102.979 200.772 102.264C200.155 102.251 199.59 101.958 199.086 102.404C198.333 103.051 198.097 104.186 198.101 105.139C198.097 107.445 198.11 109.751 198.104 112.057C197.19 112.057 196.272 112.057 195.358 112.057C195.358 108.073 195.358 104.089 195.358 100.101Z" fill="white"/>
<path d="M254.155 100.101C255.043 100.101 255.932 100.104 256.82 100.104C256.82 104.089 256.82 108.073 256.82 112.057C255.932 112.057 255.043 112.057 254.155 112.057C254.155 108.073 254.155 104.089 254.155 100.101Z" fill="white"/>
<path d="M274.957 100.085C276.727 99.3303 278.524 99.8182 280 100.953V101.269C279.577 101.822 279.124 102.352 278.679 102.885C278.065 102.397 277.616 101.877 276.766 101.883C275.59 101.861 274.947 103.389 275.736 104.232C276.618 104.885 277.845 105.084 278.721 105.786C280.691 107.331 280.216 111.146 277.881 112.116C275.907 112.945 273.794 112.32 272.305 110.857C272.793 110.265 273.284 109.673 273.778 109.084C274.573 109.777 275.248 110.421 276.385 110.255C277.461 110.005 277.726 108.522 277.092 107.728C276.052 106.86 274.35 106.717 273.487 105.513C272.298 103.734 272.957 100.966 274.957 100.085Z" fill="white"/>
<path fill-rule="evenodd" clip-rule="evenodd" d="M168.305 106.853C168.334 104.941 168.353 102.901 167.232 101.256C165.995 99.4213 163.13 99.2359 161.53 100.677C160.112 101.896 159.576 103.978 159.566 105.79C159.524 107.656 159.744 109.634 161.007 111.101C162.186 112.542 164.409 112.841 166.04 112.093C167.045 111.598 167.525 110.744 168.049 109.812L168.089 109.741C167.429 109.354 166.774 108.967 166.115 108.577C166.004 108.72 165.903 108.869 165.803 109.016C165.371 109.65 164.971 110.237 164.034 110.102C162.58 109.771 162.309 108.125 162.167 106.86C163.468 106.851 164.771 106.852 166.073 106.853C166.817 106.854 167.561 106.854 168.305 106.853ZM165.721 104.389C165.646 103.777 165.564 103.105 165.255 102.602C164.819 101.802 163.514 101.711 163.02 102.501C162.557 103.047 162.423 103.654 162.279 104.305C162.243 104.469 162.206 104.635 162.164 104.804C163.369 104.827 164.574 104.827 165.775 104.811C165.756 104.676 165.738 104.534 165.721 104.389Z" fill="white"/>
<path fill-rule="evenodd" clip-rule="evenodd" d="M269.675 106.853C269.668 105.022 269.652 102.658 268.463 101.148C267.317 99.597 265.11 99.3628 263.475 100.215C262.38 100.859 261.644 102.004 261.275 103.204C260.752 104.95 260.739 106.869 261.127 108.645C261.472 110.093 262.283 111.517 263.695 112.132C265.087 112.721 267.087 112.62 268.195 111.478C268.677 111.025 268.981 110.495 269.3 109.937C269.339 109.87 269.377 109.803 269.416 109.735C268.754 109.348 268.089 108.964 267.42 108.583C267.306 108.731 267.206 108.886 267.107 109.038C266.775 109.547 266.465 110.025 265.763 110.102C265.184 110.206 264.735 109.923 264.373 109.494C263.788 108.91 263.67 108.143 263.55 107.368C263.524 107.197 263.497 107.026 263.466 106.856C264.647 106.853 265.83 106.853 267.013 106.854C267.9 106.854 268.787 106.855 269.675 106.853ZM267.05 104.317C266.941 103.604 266.821 102.821 266.335 102.313C265.947 101.893 265.21 101.874 264.729 102.114C263.914 102.786 263.725 103.65 263.514 104.614C263.499 104.683 263.484 104.751 263.469 104.82C264.69 104.82 265.911 104.82 267.132 104.817C267.102 104.658 267.077 104.489 267.05 104.317Z" fill="white"/>
<path fill-rule="evenodd" clip-rule="evenodd" d="M215.594 101.038C214.593 99.9092 213.097 99.5189 211.647 99.8246C210.232 100.082 209.143 101.23 208.626 102.534C207.919 104.316 207.835 106.369 208.187 108.239C208.503 109.728 209.208 111.208 210.574 111.982C212.164 112.87 214.338 112.568 215.569 111.192C216.783 109.865 217.165 107.868 217.174 106.121C217.168 104.381 216.783 102.371 215.594 101.038ZM213.882 103.051C213.479 102.277 212.79 101.893 211.941 102.254C211.062 102.866 210.826 104.157 210.726 105.152C210.645 106.466 210.665 108.053 211.304 109.24C211.627 109.878 212.38 110.336 213.068 109.979C213.795 109.709 214.134 108.707 214.289 108.008C214.574 106.421 214.593 104.531 213.882 103.051Z" fill="white"/>
<path fill-rule="evenodd" clip-rule="evenodd" d="M235.408 100.93C234.287 99.6588 232.219 99.4181 230.727 100.098C229.441 100.7 228.733 101.883 228.32 103.201C227.774 105.09 227.771 107.149 228.32 109.039C228.73 110.336 229.499 111.514 230.756 112.112C232.29 112.795 234.209 112.542 235.398 111.306C236.726 109.94 237.075 107.959 237.11 106.121C237.078 104.306 236.726 102.277 235.408 100.93ZM233.618 102.729C233.218 102.118 232.258 101.896 231.699 102.375C230.685 103.324 230.614 105.159 230.64 106.456C230.669 107.546 230.82 109.094 231.731 109.829C232.374 110.304 233.14 110.115 233.608 109.504C234.277 108.577 234.377 107.23 234.384 106.121C234.381 105.009 234.284 103.662 233.618 102.729Z" fill="white"/>
<path fill-rule="evenodd" clip-rule="evenodd" d="M246.753 101.373C246.499 100.946 246.231 100.496 245.865 100.182C244.583 99.3498 242.793 99.6783 241.834 100.862C240.677 102.287 240.383 104.339 240.409 106.121C240.383 107.868 240.667 109.992 241.866 111.348C242.803 112.454 244.499 112.721 245.736 111.982C246.109 111.723 246.41 111.332 246.694 110.963C246.744 110.898 246.794 110.833 246.844 110.769C246.823 111.088 246.82 111.405 246.817 111.715C246.805 112.997 246.793 114.179 245.542 115.033C244.114 115.667 242.919 114.864 241.863 113.947C241.615 114.28 241.367 114.613 241.118 114.945C240.869 115.278 240.62 115.61 240.373 115.944C241.817 117.225 243.507 117.869 245.449 117.638C247.061 117.511 248.453 116.396 249.002 114.877C249.4 113.774 249.474 112.503 249.477 111.335C249.469 108.953 249.47 106.57 249.471 104.188C249.471 102.827 249.472 101.466 249.471 100.104H246.864C246.876 100.362 246.888 100.618 246.9 100.874C246.912 101.142 246.925 101.41 246.938 101.679C246.876 101.58 246.815 101.477 246.753 101.373ZM246.143 102.797C245.755 102.131 244.906 101.909 244.263 102.323C243.362 102.986 243.171 104.404 243.097 105.442C243.055 106.651 243.09 108.099 243.678 109.188C244.011 109.803 244.66 110.307 245.381 110.018C246.334 109.679 246.676 108.32 246.812 107.429C246.983 105.955 246.973 104.082 246.143 102.797Z" fill="white"/>
<path fill-rule="evenodd" clip-rule="evenodd" d="M168.955 78.4858C168.891 76.9832 168.609 75.3798 167.227 74.5309C165.214 73.4446 162.849 74.1146 161.334 75.731C161.77 76.3197 162.206 76.9052 162.652 77.4873C163.502 76.6775 164.316 76.0563 165.55 76.4921C166.363 76.8242 166.452 77.6361 166.536 78.4066C166.553 78.5642 166.571 78.72 166.594 78.8696C166.493 78.8716 166.392 78.8732 166.292 78.8748C164.884 78.8974 163.582 78.9182 162.391 79.8323C160.869 80.9382 160.704 83.358 161.376 84.9679C162.009 86.4608 163.693 87.0202 165.169 86.4998C165.904 86.2716 166.255 85.6922 166.621 85.0881C166.688 84.9777 166.756 84.8665 166.826 84.7565C166.8 85.2964 166.778 85.8331 166.755 86.373H168.955C168.952 85.1466 168.954 83.9195 168.956 82.6924C168.958 81.29 168.96 79.8874 168.955 78.4858ZM166.614 81.3791C166.627 81.1967 166.641 81.0116 166.658 80.8243C166.475 80.8339 166.288 80.835 166.1 80.8362C165.333 80.8409 164.548 80.8457 163.967 81.4227C163.289 82.0472 163.302 83.1725 163.667 83.9564C164.061 84.7207 165.146 84.8215 165.695 84.171C166.472 83.3507 166.54 82.4061 166.614 81.3791Z" fill="white"/>
</svg>
