<svg width="63" height="63" viewBox="0 0 63 63" fill="none" xmlns="http://www.w3.org/2000/svg">
<path d="M10.1687 0H53.085L53.198 0.00896341C54.2131 0.0781098 55.2182 0.290671 56.183 0.639604C57.7163 1.22223 59.1254 2.15058 60.267 3.40674C61.1804 4.39976 61.9151 5.59445 62.3954 6.89607C62.7155 7.79241 62.919 8.73613 63 9.69265V53.2965C62.8403 55.2281 62.1636 57.0701 61.0579 58.5945C59.7897 60.3609 58.0334 61.6593 56.0783 62.3706C55.2353 62.6645 54.3592 62.8604 53.4766 62.9379C53.1105 62.9725 52.7443 62.952 52.3787 63H10.8881C10.5917 62.9603 10.2941 62.9674 9.99718 62.9494C7.48428 62.7574 5.13642 61.5281 3.32687 59.6528C2.08107 58.3659 1.09969 56.7615 0.520563 55.0034C0.237803 54.0923 0.0579718 53.153 0 52.1933V50.0754C0.360253 50.9007 0.754817 51.7061 1.22687 52.4641C2.12011 53.9277 3.26476 55.1922 4.66555 56.0873C5.79541 56.8018 7.04299 57.2788 8.33315 57.5131C8.99746 57.6328 9.67715 57.7391 10.3521 57.7225C21.2763 57.7218 32.1998 57.7225 43.1239 57.7225C43.4008 57.7212 43.677 57.7282 43.9533 57.7135C44.9595 57.7058 45.9504 57.5381 46.9193 57.2513C48.5745 56.7256 50.1527 55.7768 51.382 54.4591C52.1604 53.6556 52.8224 52.7055 53.301 51.6613C53.9931 50.2387 54.3184 48.5971 54.2918 46.9939C54.2912 35.6616 54.2918 24.3293 54.2912 12.997C54.2829 12.0814 54.1415 11.1761 53.9037 10.2983C53.6251 9.3354 53.1986 8.42049 52.6639 7.59393C51.4299 5.70457 49.6381 4.33509 47.6286 3.5732C46.4023 3.13143 45.1287 2.87854 43.8338 2.89326C32.4169 2.89454 20.9994 2.8939 9.58251 2.8939C8.36037 2.90927 7.13468 3.12055 5.97228 3.53223C4.73239 3.95863 3.55699 4.67762 2.58744 5.61814C1.85214 6.32689 1.25704 7.16625 0.767239 8.08884C0.735296 8.15671 0.710451 8.22841 0.683239 8.29884C0.673183 8.085 0.735887 7.89549 0.784986 7.69189C1.13577 6.30576 1.74448 5.00479 2.59631 3.89973C2.84831 3.55207 3.14527 3.2582 3.43039 2.94384C4.46501 1.89832 5.70372 1.12683 7.04003 0.628079C8.05158 0.265061 9.10513 0.0621037 10.1687 0Z" fill="black"/>
<path d="M35.4699 25.3396C37.0067 25.328 38.5477 25.3485 40.084 25.33C40.1408 25.5086 40.1183 25.6814 40.1212 25.8658C40.1206 28.357 40.1206 30.8476 40.1206 33.3388C41.3268 33.3394 42.5324 33.3381 43.7386 33.3394C43.7386 34.9112 43.7391 36.483 43.7386 38.0548C42.533 38.0535 41.328 38.0561 40.1224 38.0535C40.1177 43.753 40.123 49.4531 40.12 55.1525C38.5672 55.1544 37.0144 55.1525 35.4616 55.1538C35.4539 49.4556 35.4598 43.7549 35.4586 38.0567C34.7985 38.0516 34.1383 38.0561 33.4781 38.0542C33.477 36.4824 33.4775 34.9112 33.4775 33.3394C34.1383 33.3362 34.7985 33.3432 35.4592 33.3356C35.4569 30.7387 35.4592 28.14 35.4581 25.5425C35.4581 25.474 35.4622 25.4068 35.4699 25.3396Z" fill="black"/>
<path d="M25.0504 25.3991C26.5813 25.3979 28.14 25.4017 29.6692 25.3972C29.6822 25.7033 29.6751 26.008 29.6763 26.314C29.6769 35.6827 29.6763 45.0521 29.6763 54.4207C29.6769 54.6653 29.6781 54.9099 29.6727 55.1545C28.1193 55.1519 26.5653 55.1545 25.0119 55.1532C25.0084 45.305 25.0125 35.4561 25.0095 25.6079C25.003 25.5272 25.0166 25.4574 25.0504 25.3991Z" fill="black"/>
<path fill-rule="evenodd" clip-rule="evenodd" d="M12.8946 33.5494C12.348 33.4041 11.7955 33.3356 11.2353 33.285C9.97117 33.2082 8.68278 33.2607 7.45768 33.6365C6.0841 34.052 4.8732 34.9221 3.90661 36.0476C2.77971 37.3441 1.90658 38.8641 1.45345 40.5838C1.08196 41.9917 0.976666 43.4348 1.02813 44.8939C1.06303 46.0694 1.19495 47.2308 1.46765 48.371C1.86399 49.996 2.60698 51.5223 3.68123 52.7426C4.33312 53.468 5.0832 54.0871 5.92971 54.5257C6.76024 54.9803 7.65407 55.2345 8.56979 55.3907C8.59623 55.3933 8.62263 55.3959 8.649 55.3984C8.78135 55.411 8.91281 55.4235 9.04303 55.4534C9.21131 55.4612 9.38122 55.4727 9.55186 55.4843C10.0561 55.5186 10.5667 55.5532 11.0608 55.4925C12.2457 55.4201 13.4093 55.1115 14.4616 54.5078C15.249 54.0935 15.9227 53.5186 16.5788 52.8982C16.5823 53.2674 16.5818 53.6368 16.5812 54.0062C16.5807 54.3889 16.5802 54.7717 16.5841 55.1544C17.3645 55.1531 18.145 55.1533 18.9255 55.1535C19.7058 55.1536 20.4861 55.1538 21.2662 55.1525C21.269 50.3054 21.2686 45.4577 21.2682 40.6103C21.268 38.1866 21.2678 35.7629 21.268 33.3394C19.7057 33.3381 18.1434 33.3388 16.5811 33.3394C16.5807 33.6765 16.5809 34.0138 16.5811 34.3511C16.5814 34.8331 16.5817 35.3152 16.58 35.7973C16.465 35.7462 16.3898 35.6624 16.3108 35.5742C16.2789 35.5385 16.2463 35.5021 16.2102 35.4669C15.2862 34.5296 14.1298 33.8561 12.8946 33.5494ZM14.2427 38.3096C13.2726 37.6707 12.0564 37.5292 10.9437 37.558C10.0605 37.5823 9.15956 37.8435 8.40888 38.3557C7.55882 38.9095 6.86316 39.77 6.35739 40.6849C5.66823 41.9577 5.46178 43.413 5.56353 44.8696C5.64575 46.3274 6.05984 47.8416 6.89806 49.0043C7.59609 50.0133 8.62716 50.8021 9.7653 51.0979C10.4071 51.2746 11.0555 51.2752 11.7127 51.2419C12.2782 51.1721 12.8289 51.0607 13.3566 50.8213C14.3752 50.3699 15.2354 49.5613 15.8163 48.5523C16.4344 47.5087 16.7574 46.3044 16.8337 45.0725C16.8603 44.4304 16.8592 43.7837 16.8101 43.1422C16.7119 42.3611 16.551 41.596 16.2416 40.8783C15.8009 39.8513 15.1579 38.8916 14.2427 38.3096Z" fill="black"/>
</svg>
